# Blender v2.76 (sub 0) OBJ File: 'box x 10.blend'
# www.blender.org
mtllib box x 10.mtl
o box:1_Untitled.001
v 0.936625 0.015875 0.508000
v -0.936625 0.015875 0.508000
v 0.936625 0.730250 0.508000
v -0.936625 0.730250 0.508000
v -0.936625 0.015875 -0.508000
v 0.936625 0.015875 -0.508000
v -0.936625 0.730250 -0.508000
v 0.936625 0.730250 -0.508000
v -0.952500 -0.000000 0.523875
v 0.952500 -0.000000 0.523875
v -0.952500 0.730250 0.523875
v 0.952500 0.730250 0.523875
v 0.952500 0.000000 -0.523875
v -0.952500 0.000000 -0.523875
v 0.952500 0.730250 -0.523875
v -0.952500 0.730250 -0.523875
vt 0.424153 0.159571
vt 0.840429 0.159571
vt 0.424153 0.318321
vt 0.840429 0.318320
vt 0.424153 0.000274
vt 0.840429 0.000274
vt 0.424153 0.159023
vt 0.840429 0.159023
vt 0.000274 0.467034
vt 0.416550 0.467034
vt 0.000274 0.692811
vt 0.416550 0.692811
vt 0.840977 0.226599
vt 0.999726 0.226599
vt 0.840977 0.452375
vt 0.999726 0.452375
vt 0.999726 0.226051
vt 0.840977 0.226051
vt 0.999726 0.000274
vt 0.840977 0.000274
vt 0.417098 0.467034
vt 0.840429 0.467034
vt 0.417098 0.629311
vt 0.840429 0.629311
vt 0.417098 0.629860
vt 0.840429 0.629860
vt 0.417098 0.792136
vt 0.840429 0.792136
vt 0.423605 0.466486
vt 0.000274 0.466486
vt 0.423605 0.233654
vt 0.000274 0.233654
vt 0.003802 0.003802
vt 0.003802 0.229578
vt 0.000274 0.233106
vt 0.420077 0.229578
vt 0.423605 0.233106
vt 0.420077 0.003802
vt 0.423605 0.000274
vt 0.000274 0.000274
vt 0.325376 0.926191
vt 0.163099 0.926191
vt 0.325376 0.693359
vt 0.163099 0.693359
vt 0.000274 0.693359
vt 0.162551 0.693359
vt 0.000274 0.926191
vt 0.162551 0.926191
vn 0.000000 0.000000 -1.000000
vn 0.000000 -0.000000 1.000000
vn 0.000000 1.000000 0.000000
vn -1.000000 0.000000 0.000000
vn 1.000000 0.000000 0.000000
vn 0.000000 -1.000000 -0.000000
usemtl Material.001
s 1
f 1/1/1 2/2/1 3/3/1
f 3/3/1 2/2/1 4/4/1
f 5/5/2 6/6/2 7/7/2
f 7/7/2 6/6/2 8/8/2
f 6/9/3 5/10/3 1/11/3
f 1/11/3 5/10/3 2/12/3
f 8/13/4 6/14/4 3/15/4
f 3/15/4 6/14/4 1/16/4
f 5/17/5 7/18/5 2/19/5
f 2/19/5 7/18/5 4/20/5
f 9/21/2 10/22/2 11/23/2
f 11/23/2 10/22/2 12/24/2
f 13/25/1 14/26/1 15/27/1
f 15/27/1 14/26/1 16/28/1
f 14/29/6 13/30/6 9/31/6
f 9/31/6 13/30/6 10/32/6
f 4/33/3 7/34/3 16/35/3
f 16/35/3 7/34/3 8/36/3
f 16/35/3 8/36/3 15/37/3
f 15/37/3 8/36/3 3/38/3
f 15/37/3 3/38/3 12/39/3
f 12/39/3 3/38/3 4/33/3
f 12/39/3 4/33/3 11/40/3
f 11/40/3 4/33/3 16/35/3
f 13/41/5 15/42/5 10/43/5
f 10/43/5 15/42/5 12/44/5
f 16/45/4 14/46/4 11/47/4
f 11/47/4 14/46/4 9/48/4
