# This file uses meters as units for non-parametric coordinates.

mtllib HaH_PlayerSlice.mtl
g default
v -37.171726 98.779724 -70.288315
v -36.987789 100.173042 -78.879059
v 2.990648 98.779663 -79.455811
v 7.436579 100.173164 -86.802826
v 11.635153 101.088905 -93.355789
v -36.544159 101.088951 -86.690453
v -34.632309 103.337746 -122.966454
v -34.619587 103.026955 -113.474281
v -35.272125 102.499596 -103.591599
v 21.284119 102.504417 -107.411415
v 26.771276 103.029793 -115.649551
v 31.481932 103.337837 -123.810318
v -35.179478 103.513481 -129.232101
v -35.914978 103.602127 -134.025772
v -38.484318 103.689209 -143.629608
v -37.193455 103.654495 -138.800873
v 34.151985 103.513519 -129.507355
v 35.910870 103.602127 -134.026810
v 0.001415 103.689430 -148.695953
v -19.406618 103.689430 -147.418579
v 38.487030 103.689209 -143.628967
v 19.409374 103.689430 -147.418335
v 37.190769 103.654495 -138.801590
v -35.992340 101.861481 -94.800865
v 16.246861 101.861618 -100.093369
v -22.284893 65.767075 -12.566242
v -24.151094 71.778168 -16.043673
v -12.865891 65.765976 -22.112507
v -12.749015 71.777214 -26.040327
v -12.460997 77.174889 -30.813652
v -26.286625 77.175842 -20.342571
v -35.406334 93.741516 -48.948639
v -33.413479 90.374725 -39.764530
v -31.080078 86.491516 -32.040161
v -10.797832 86.491066 -43.311596
v -8.975334 90.374458 -51.157284
v -6.126518 93.741310 -60.099739
v -36.774086 96.586548 -59.698517
v -1.949825 96.586449 -70.088600
v -28.642796 82.088005 -25.617270
v -11.879993 82.087349 -36.543808
v -15.556029 0.259828 -1.520991
v -14.533387 0.263680 -5.557046
v -16.197046 9.652422 -1.701435
v -12.601506 0.259730 -9.245718
v -13.064649 9.653172 -9.722171
v -13.317453 18.834999 -10.451750
v -16.785488 18.834501 -2.206854
v -13.258026 36.043552 -12.615294
v -13.130651 44.087093 -14.184743
v -13.021254 51.763458 -16.215975
v -19.452080 51.764568 -7.359227
v -18.519262 44.088017 -5.539434
v -17.828539 35.986393 -4.110994
v -20.717594 59.041882 -9.682153
v -12.951269 59.040634 -18.846668
v -17.294153 27.650690 -3.012177
v -13.348999 27.650005 -11.398933
v -34.938030 99.607620 -71.251419
v -17.012827 99.562782 -77.449326
v -14.633701 100.963242 -85.699074
v -34.730446 100.997131 -79.768127
v 2.095179 99.607666 -79.328835
v 6.524761 100.997192 -86.756317
v 10.704313 101.916122 -93.399750
v -12.194168 101.890251 -93.150780
v -34.277649 101.912163 -87.504517
v -32.740074 104.151863 -123.468330
v -32.578991 103.839317 -114.030281
v -3.315187 103.877060 -119.891220
v -14.130882 104.157516 -127.061531
v -33.119228 103.316185 -104.232376
v -6.707756 103.312752 -109.422707
v 20.198471 103.323586 -107.597069
v 25.539797 103.844269 -115.922096
v 30.123465 104.152039 -124.139374
v 11.460747 104.157555 -127.333527
v -0.994877 104.224998 -129.745239
v 0.003178 104.411102 -138.748352
v -0.386044 104.321373 -133.886459
v 17.087090 104.322205 -132.823273
v 18.112766 104.411102 -137.555771
v 32.658680 104.325073 -129.891220
v 34.286995 104.412735 -134.456009
v -33.421051 104.324768 -129.684097
v -34.288696 104.412537 -134.442917
v -17.872335 104.322197 -132.719864
v -18.106491 104.411102 -137.556641
v 0.002106 104.487869 -147.006592
v -19.185450 104.487877 -145.743851
v -18.756023 104.464241 -142.441864
v -0.002117 104.464355 -143.693253
v -36.528774 104.488686 -142.407455
v -35.568581 104.465324 -139.225220
v 36.531792 104.488693 -142.408539
v 19.189564 104.487869 -145.743347
v 18.749737 104.464241 -142.442673
v 35.567284 104.465347 -139.232529
v 15.263304 102.685089 -100.208252
v -9.594810 102.653358 -100.712471
v -33.758755 102.682007 -95.540199
v -20.672913 66.191063 -13.605757
v -17.616085 66.104225 -17.520123
v -18.525383 72.209549 -21.408285
v -22.473974 72.311935 -17.094429
v -13.675272 66.191017 -20.626980
v -13.623415 72.311951 -24.732607
v -13.406675 77.809166 -29.690592
v -19.501080 77.698746 -26.154118
v -24.563553 77.809143 -21.398600
v -33.326675 94.557617 -50.074104
v -31.439657 91.173431 -40.906082
v -21.311497 91.088181 -46.955341
v -20.830135 94.488579 -56.383625
v -29.204905 87.256660 -33.165504
v -21.084335 87.157219 -38.830318
v -11.764729 87.256676 -42.596653
v -9.918372 91.173439 -50.629910
v -7.037139 94.557617 -59.737328
v -19.355936 97.357971 -67.128647
v -2.840342 97.413261 -69.858582
v -34.598518 97.413254 -60.755638
v -12.850283 82.798607 -35.625973
v -20.409313 82.689728 -31.925701
v -26.851578 82.798576 -26.708319
v -14.491762 1.991931 -2.980877
v -13.923922 1.993642 -5.326725
v -14.392279 9.711185 -5.622166
v -15.009951 9.723874 -3.142579
v -12.781047 1.991933 -7.452572
v -13.165703 9.725325 -7.863928
v -13.469762 18.907862 -8.598437
v -14.838781 18.892042 -6.242823
v -15.565326 18.905766 -3.617172
v -13.598591 36.181488 -10.794720
v -13.586907 44.246040 -12.401715
v -15.708529 44.211334 -9.803720
v -15.385815 36.044834 -8.279593
v -13.600796 51.994690 -14.500608
v -16.163239 51.944649 -11.777804
v -17.970137 51.994671 -8.504345
v -17.109924 44.245972 -6.756420
v -16.488796 36.066925 -5.400887
v -13.651934 59.362343 -17.228466
v -16.819851 59.294102 -14.323956
v -19.166348 59.362328 -10.763155
v -13.589920 27.745131 -9.546807
v -15.135827 27.647135 -7.107807
v -16.023384 27.718218 -4.359831
vt -0.020505 0.894616
vt -0.000000 0.894616
vt -0.000000 0.909678
vt -0.020505 0.909678
vt 0.020505 0.894616
vt 0.020505 0.909678
vt 0.020505 0.921992
vt -0.000000 0.921992
vt -0.020505 0.921992
vt -0.020505 0.970018
vt -0.020505 0.960166
vt 0.000000 0.961398
vt -0.007689 0.970326
vt -0.020505 0.946928
vt -0.000000 0.947236
vt 0.020505 0.946929
vt 0.020505 0.960166
vt 0.020505 0.970018
vt 0.007689 0.970326
vt -0.000000 0.972891
vt 0.000000 0.983563
vt 0.000000 0.977406
vt 0.010252 0.977406
vt 0.010252 0.983563
vt 0.020505 0.977406
vt 0.020505 0.983563
vt -0.020505 0.983563
vt -0.020505 0.977406
vt -0.010252 0.977406
vt -0.010252 0.983563
vt -0.000000 0.995878
vt -0.010252 0.995878
vt -0.010252 0.989721
vt -0.000000 0.989720
vt -0.020505 0.995878
vt -0.020505 0.989721
vt 0.020505 0.995878
vt 0.010252 0.995878
vt 0.010252 0.989720
vt 0.020505 0.989721
vt 0.020505 0.934306
vt 0.000000 0.934306
vt -0.020505 0.934306
vt -0.020505 0.710279
vt -0.000000 0.710279
vt -0.000000 0.734231
vt -0.020505 0.734231
vt 0.020505 0.710279
vt 0.020505 0.734231
vt 0.020505 0.757536
vt -0.000000 0.757536
vt -0.020505 0.757536
vt -0.020505 0.850754
vt -0.020505 0.827450
vt -0.000000 0.827450
vt -0.000000 0.850754
vt -0.020505 0.804145
vt -0.000000 0.804145
vt 0.020505 0.804145
vt 0.020505 0.827450
vt 0.020505 0.850754
vt -0.000000 0.874059
vt 0.020505 0.874059
vt -0.020505 0.874059
vt 0.020505 0.780841
vt -0.000000 0.780841
vt -0.020505 0.780841
vt -0.020505 0.503765
vt -0.000000 0.503765
vt -0.000000 0.529661
vt -0.020505 0.529661
vt 0.020505 0.503766
vt 0.020505 0.529661
vt 0.020505 0.555556
vt -0.000000 0.555556
vt -0.020505 0.555556
vt 0.020505 0.607346
vt 0.020505 0.633241
vt -0.000000 0.633241
vt -0.000000 0.607346
vt 0.020505 0.659136
vt -0.000000 0.659136
vt -0.020505 0.659136
vt -0.020505 0.633241
vt -0.020505 0.607346
vt 0.020505 0.685032
vt -0.000000 0.685032
vt -0.020505 0.685032
vt 0.020505 0.581451
vt -0.000000 0.581451
vt -0.020505 0.581451
vt -0.024020 0.909678
vt -0.024020 0.894616
vt 0.024020 0.894616
vt 0.024020 0.909678
vt 0.024020 0.921992
vt -0.024020 0.921992
vt -0.024020 0.970018
vt -0.024020 0.960166
vt -0.024020 0.946928
vt 0.024020 0.946929
vt 0.024020 0.960166
vt 0.024020 0.970018
vt 0.024020 0.977406
vt 0.024020 0.983563
vt -0.024020 0.983563
vt -0.024020 0.977406
vt -0.000000 0.999691
vt -0.010252 0.999691
vt -0.020505 0.999691
vt -0.024020 0.989721
vt 0.024020 0.995878
vt 0.010252 0.999691
vt 0.024020 0.989721
vt 0.024020 0.934306
vt -0.024020 0.934306
vt -0.024020 0.734231
vt -0.024020 0.710279
vt 0.024020 0.710279
vt 0.024020 0.734231
vt 0.024020 0.757536
vt -0.024020 0.757536
vt -0.024020 0.850754
vt -0.024020 0.827450
vt -0.024020 0.804145
vt 0.024020 0.804145
vt 0.024020 0.827450
vt 0.024020 0.850754
vt 0.024020 0.874059
vt -0.024020 0.874059
vt 0.024020 0.780841
vt -0.024020 0.780841
vt -0.024020 0.500309
vt -0.000000 0.500309
vt -0.024020 0.529661
vt 0.024020 0.500309
vt 0.024020 0.529661
vt 0.024020 0.555556
vt -0.024020 0.555556
vt 0.024020 0.607346
vt 0.024020 0.633241
vt 0.024020 0.659136
vt -0.024020 0.659136
vt -0.024020 0.633241
vt -0.024020 0.607346
vt 0.024020 0.685032
vt -0.024020 0.685032
vt 0.024020 0.581451
vt -0.024020 0.581451
vt 0.020505 0.999691
vt -0.024020 0.995878
vn 0.031869 0.979979 0.196535
vn 0.043648 0.979204 0.198126
vn 0.025487 0.988161 0.151286
vn 0.010049 0.988468 0.151094
vn 0.057741 0.974203 0.218161
vn 0.040810 0.984855 0.168509
vn 0.030374 0.990647 0.133023
vn 0.014829 0.993262 0.114939
vn -0.004666 0.993553 0.113271
vn -0.026164 0.999144 0.032039
vn -0.018974 0.998778 0.045638
vn 0.000705 0.998937 0.046096
vn 0.004110 0.999520 0.030697
vn -0.015652 0.997790 0.064582
vn 0.003851 0.997917 0.064391
vn 0.018863 0.996779 0.077952
vn 0.022620 0.997994 0.059137
vn 0.032277 0.998255 0.049455
vn -0.003150 0.999515 0.030983
vn 0.000308 0.999507 0.031397
vn -0.000018 0.999897 0.014342
vn 0.000067 0.999757 0.022061
vn -0.003106 0.999738 0.022664
vn -0.001840 0.999898 0.014168
vn 0.039374 0.998387 0.040896
vn 0.041687 0.998735 0.028109
vn -0.038788 0.998979 0.023174
vn -0.036390 0.998933 0.028426
vn 0.003235 0.999741 0.022546
vn 0.001807 0.999898 0.014195
vn -0.000000 0.999975 0.007098
vn 0.000908 0.999975 0.007028
vn 0.001174 0.999958 0.009103
vn 0.000001 0.999958 0.009193
vn -0.074566 0.996816 0.028256
vn -0.043566 0.998822 0.021359
vn 0.074655 0.996805 0.028394
vn -0.000909 0.999975 0.007026
vn -0.001172 0.999958 0.009100
vn 0.043533 0.998823 0.021382
vn 0.023706 0.994244 0.104485
vn 0.008250 0.996022 0.088730
vn -0.012023 0.996056 0.087903
vn 0.631671 0.453328 0.628876
vn 0.635407 0.440925 0.633911
vn 0.538485 0.565521 0.624675
vn 0.539009 0.574009 0.616428
vn 0.638823 0.408208 0.652128
vn 0.538276 0.536934 0.649585
vn 0.433077 0.659149 0.614790
vn 0.435287 0.682775 0.586808
vn 0.437040 0.688282 0.579019
vn 0.097933 0.949413 0.298369
vn 0.162026 0.913438 0.373334
vn 0.168304 0.912218 0.373539
vn 0.108960 0.948511 0.297413
vn 0.242356 0.859466 0.450091
vn 0.244218 0.857619 0.452602
vn 0.243735 0.844259 0.477306
vn 0.170434 0.902639 0.395216
vn 0.114074 0.941735 0.316423
vn 0.069518 0.967974 0.241235
vn 0.079152 0.961943 0.261535
vn 0.056520 0.969170 0.239821
vn 0.332793 0.762930 0.554245
vn 0.334999 0.781069 0.526980
vn 0.336110 0.784227 0.521554
vn 0.880517 0.068317 0.469067
vn 0.930801 0.070105 0.358742
vn 0.927560 0.070199 0.367022
vn 0.900038 0.072428 0.429750
vn 0.966206 0.061782 0.250257
vn 0.948733 0.060832 0.310169
vn 0.937052 0.056139 0.344649
vn 0.918292 0.070652 0.389548
vn 0.894533 0.078918 0.439981
vn 0.890397 0.083937 0.447379
vn 0.850807 0.129573 0.509252
vn 0.836432 0.159003 0.524500
vn 0.874429 0.108446 0.472877
vn 0.795937 0.201347 0.570915
vn 0.784360 0.234198 0.574396
vn 0.769411 0.251974 0.586954
vn 0.817743 0.177004 0.547692
vn 0.853330 0.125312 0.506087
vn 0.725040 0.294779 0.622433
vn 0.717567 0.328962 0.613907
vn 0.707689 0.344938 0.616598
vn 0.918604 0.060415 0.390534
vn 0.901211 0.080009 0.425931
vn 0.878331 0.093651 0.468789
vn -0.294891 0.946746 0.129271
vn -0.268593 0.944842 0.187435
vn 0.629219 0.609414 0.482388
vn 0.600810 0.643047 0.474888
vn 0.571158 0.679292 0.460805
vn -0.313815 0.945728 0.084376
vn -0.379992 0.923950 0.043855
vn -0.362433 0.931509 0.030552
vn -0.344694 0.938003 0.036565
vn 0.500811 0.774073 0.387298
vn 0.470797 0.820870 0.323301
vn 0.449958 0.854241 0.260404
vn 0.429210 0.880752 0.200137
vn 0.418136 0.896553 0.146131
vn -0.414984 0.903950 0.103264
vn -0.399793 0.913730 0.072544
vn -0.000003 0.904108 -0.427304
vn -0.055360 0.901325 -0.429592
vn -0.055299 0.901331 -0.429587
vn 0.000011 0.904108 -0.427304
vn -0.084473 0.897978 -0.431856
vn -0.084473 0.897978 -0.431856
vn -0.430305 0.893649 0.127394
vn -0.423294 0.897432 0.124251
vn 0.084499 0.897882 -0.432050
vn 0.055355 0.901284 -0.429679
vn 0.055321 0.901287 -0.429676
vn 0.084499 0.897882 -0.432050
vn 0.423205 0.897427 0.124591
vn 0.430320 0.893549 0.128040
vn 0.538257 0.722132 0.434517
vn -0.327599 0.942997 0.058605
vn 0.286090 0.593106 0.752581
vn 0.389199 0.480779 0.785733
vn 0.880728 0.233885 0.411845
vn 0.840773 0.320040 0.436664
vn 0.799281 0.403423 0.445421
vn 0.175460 0.698138 0.694131
vn -0.182967 0.925103 0.332727
vn -0.113427 0.896423 0.428440
vn -0.029238 0.850432 0.525272
vn 0.733543 0.522332 0.434838
vn 0.709910 0.555207 0.433328
vn 0.687467 0.575896 0.442417
vn 0.660086 0.589808 0.465202
vn -0.234192 0.939211 0.251071
vn 0.762731 0.472006 0.442099
vn 0.068306 0.784190 0.616750
vn 0.906096 -0.357963 0.225503
vn 0.871350 -0.360182 0.333193
vn 0.871278 -0.360181 0.333383
vn 0.906096 -0.357963 0.225503
vn 0.763946 0.073426 0.641089
vn 0.768459 0.064739 0.636615
vn 0.825350 -0.357778 0.436799
vn 0.825350 -0.357778 0.436799
vn 0.997346 0.052011 0.050941
vn 0.997303 0.043396 0.059185
vn 0.995918 0.027555 0.085949
vn 0.748558 0.089980 0.656935
vn 0.982330 0.026049 0.185334
vn 0.967647 0.051962 0.246900
vn 0.945755 0.097524 0.309899
vn 0.560725 0.285342 0.777283
vn 0.627832 0.208931 0.749783
vn 0.679715 0.153647 0.717203
vn 0.916146 0.158773 0.368059
vn 0.480681 0.377068 0.791685
vn 0.991259 0.018824 0.130579
vn 0.720008 0.114358 0.684478
s 1
g PlayerSlice
usemtl lambert3SG
f 59/1/1 60/2/2 61/3/3 62/4/4
f 60/2/2 63/5/5 64/6/6 61/3/3
f 61/3/3 64/6/6 65/7/7 66/8/8
f 62/4/4 61/3/3 66/8/8 67/9/9
f 68/10/10 69/11/11 70/12/12 71/13/13
f 72/14/14 73/15/15 70/12/12 69/11/11
f 74/16/16 75/17/17 70/12/12 73/15/15
f 76/18/18 77/19/19 70/12/12 75/17/17
f 78/20/20 71/13/13 70/12/12 77/19/19
f 79/21/21 80/22/22 81/23/23 82/24/24
f 80/22/22 78/20/20 77/19/19 81/23/23
f 81/23/23 77/19/19 76/18/18 83/25/25
f 82/24/24 81/23/23 83/25/25 84/26/26
f 86/27/27 85/28/28 87/29/29 88/30/30
f 85/28/28 68/10/10 71/13/13 87/29/29
f 87/29/29 71/13/13 78/20/20 80/22/22
f 88/30/30 87/29/29 80/22/22 79/21/21
f 89/31/31 90/32/32 91/33/33 92/34/34
f 90/32/32 93/35/35 94/36/36 91/33/33
f 91/33/33 94/36/36 86/27/27 88/30/30
f 92/34/34 91/33/33 88/30/30 79/21/21
f 95/37/37 96/38/38 97/39/39 98/40/40
f 96/38/38 89/31/31 92/34/34 97/39/39
f 97/39/39 92/34/34 79/21/21 82/24/24
f 98/40/40 97/39/39 82/24/24 84/26/26
f 65/7/7 99/41/41 100/42/42 66/8/8
f 99/41/41 74/16/16 73/15/15 100/42/42
f 100/42/42 73/15/15 72/14/14 101/43/43
f 66/8/8 100/42/42 101/43/43 67/9/9
f 102/44/44 103/45/45 104/46/46 105/47/47
f 103/45/45 106/48/48 107/49/49 104/46/46
f 104/46/46 107/49/49 108/50/50 109/51/51
f 105/47/47 104/46/46 109/51/51 110/52/52
f 111/53/53 112/54/54 113/55/55 114/56/56
f 112/54/54 115/57/57 116/58/58 113/55/55
f 113/55/55 116/58/58 117/59/59 118/60/60
f 114/56/56 113/55/55 118/60/60 119/61/61
f 63/5/5 60/2/2 120/62/62 121/63/63
f 60/2/2 59/1/1 122/64/64 120/62/62
f 120/62/62 122/64/64 111/53/53 114/56/56
f 121/63/63 120/62/62 114/56/56 119/61/61
f 108/50/50 123/65/65 124/66/66 109/51/51
f 123/65/65 117/59/59 116/58/58 124/66/66
f 124/66/66 116/58/58 115/57/57 125/67/67
f 109/51/51 124/66/66 125/67/67 110/52/52
f 126/68/68 127/69/69 128/70/70 129/71/71
f 127/69/69 130/72/72 131/73/73 128/70/70
f 128/70/70 131/73/73 132/74/74 133/75/75
f 129/71/71 128/70/70 133/75/75 134/76/76
f 135/77/77 136/78/78 137/79/79 138/80/80
f 136/78/78 139/81/81 140/82/82 137/79/79
f 137/79/79 140/82/82 141/83/83 142/84/84
f 138/80/80 137/79/79 142/84/84 143/85/85
f 139/81/81 144/86/86 145/87/87 140/82/82
f 144/86/86 106/48/48 103/45/45 145/87/87
f 145/87/87 103/45/45 102/44/44 146/88/88
f 140/82/82 145/87/87 146/88/88 141/83/83
f 132/74/74 147/89/89 148/90/90 133/75/75
f 147/89/89 135/77/77 138/80/80 148/90/90
f 148/90/90 138/80/80 143/85/85 149/91/91
f 133/75/75 148/90/90 149/91/91 134/76/76
f 2/92/92 1/93/93 59/1/1 62/4/4
f 3/94/94 4/95/95 64/6/6 63/5/5
f 4/95/95 5/96/96 65/7/7 64/6/6
f 6/97/97 2/92/92 62/4/4 67/9/9
f 7/98/98 8/99/99 69/11/11 68/10/10
f 8/99/99 9/100/100 72/14/14 69/11/11
f 10/101/101 11/102/102 75/17/17 74/16/16
f 11/102/102 12/103/103 76/18/18 75/17/17
f 12/103/103 17/104/104 83/25/25 76/18/18
f 17/104/104 18/105/105 84/26/26 83/25/25
f 14/106/106 13/107/107 85/28/28 86/27/27
f 13/107/107 7/98/98 68/10/10 85/28/28
s 10
f 19/108/108 20/109/109 90/32/110 89/31/111
f 20/109/109 15/110/112 93/35/113 90/32/110
s 1
f 15/151/114 16/111/115 94/36/36 93/35/35
f 16/111/115 14/106/106 86/27/27 94/36/36
s 10
f 21/150/116 22/113/117 96/38/118 95/37/119
s 1
f 23/114/120 21/112/121 95/37/37 98/40/40
s 10
f 22/113/117 19/108/108 89/31/111 96/38/118
s 1
f 18/105/105 23/114/120 98/40/40 84/26/26
f 5/96/96 25/115/122 99/41/41 65/7/7
f 25/115/122 10/101/101 74/16/16 99/41/41
f 9/100/100 24/116/123 101/43/43 72/14/14
f 24/116/123 6/97/97 67/9/9 101/43/43
f 27/117/124 26/118/125 102/44/44 105/47/47
f 28/119/126 29/120/127 107/49/49 106/48/48
f 29/120/127 30/121/128 108/50/50 107/49/49
f 31/122/129 27/117/124 105/47/47 110/52/52
f 32/123/130 33/124/131 112/54/54 111/53/53
f 33/124/131 34/125/132 115/57/57 112/54/54
f 35/126/133 36/127/134 118/60/60 117/59/59
f 36/127/134 37/128/135 119/61/61 118/60/60
f 39/129/136 3/94/94 63/5/5 121/63/63
f 1/93/93 38/130/137 122/64/64 59/1/1
f 38/130/137 32/123/130 111/53/53 122/64/64
f 37/128/135 39/129/136 121/63/63 119/61/61
f 30/121/128 41/131/138 123/65/65 108/50/50
f 41/131/138 35/126/133 117/59/59 123/65/65
f 34/125/132 40/132/139 125/67/67 115/57/57
f 40/132/139 31/122/129 110/52/52 125/67/67
s 11
f 42/133/140 43/134/141 127/69/142 126/68/143
s 1
f 44/135/144 42/133/145 126/68/68 129/71/71
s 11
f 43/134/141 45/136/146 130/72/147 127/69/142
s 1
f 45/136/148 46/137/149 131/73/73 130/72/72
f 46/137/149 47/138/150 132/74/74 131/73/73
f 48/139/151 44/135/144 129/71/71 134/76/76
f 49/140/152 50/141/153 136/78/78 135/77/77
f 50/141/153 51/142/154 139/81/81 136/78/78
f 52/143/155 53/144/156 142/84/84 141/83/83
f 53/144/156 54/145/157 143/85/85 142/84/84
f 51/142/154 56/146/158 144/86/86 139/81/81
f 56/146/158 28/119/126 106/48/48 144/86/86
f 26/118/125 55/147/159 146/88/88 102/44/44
f 55/147/159 52/143/155 141/83/83 146/88/88
f 47/138/150 58/148/160 147/89/89 132/74/74
f 58/148/160 49/140/152 135/77/77 147/89/89
f 54/145/157 57/149/161 149/91/91 143/85/85
f 57/149/161 48/139/151 134/76/76 149/91/91
