# Blender v2.76 (sub 0) OBJ File: ''
# www.blender.org
mtllib HaH_Trophy.mtl
o HaH_Trophy
v -1.565369 -0.000008 1.565369
v 1.565369 -0.000008 1.565369
v 1.565369 1.565369 1.565369
v -1.565369 1.565369 1.565369
v 1.565369 1.565369 -1.565369
v -1.565369 1.565369 -1.565369
v 1.565369 -0.000008 -1.565369
v -1.565369 -0.000008 -1.565369
v 0.782684 1.565369 -0.782684
v 0.000000 1.565369 -1.106888
v 0.000000 2.373179 -1.106888
v 0.782684 2.373179 -0.782684
v -0.782684 1.565369 -0.782684
v -0.782684 2.373179 -0.782684
v -1.106882 1.565369 0.000008
v -1.106882 2.373179 0.000008
v -0.782684 1.565369 0.782684
v -0.782684 2.373179 0.782684
v 0.000000 1.565369 1.106888
v 0.000000 2.373179 1.106888
v 0.782684 1.565369 0.782684
v 0.782684 2.373179 0.782684
v 1.106882 1.565369 0.000008
v 1.106882 2.373179 0.000008
v 0.274558 2.348045 -0.274559
v -0.274558 2.348045 -0.274559
v -0.127892 3.130745 -0.127891
v 0.127892 3.130745 -0.127891
v -0.274558 2.348045 0.274559
v -0.127892 3.130745 0.127893
v 0.274558 2.348045 0.274559
v 0.127892 3.130745 0.127893
v -0.109402 3.719383 -0.109389
v 0.109401 3.719383 -0.109389
v -0.109402 3.719383 0.109407
v 0.109401 3.719383 0.109407
v 0.000000 3.977676 -0.785735
v 0.555605 3.977676 -0.555602
v -0.555605 3.977676 -0.555602
v -0.785742 3.977676 0.000009
v -0.555605 3.977676 0.555604
v 0.000000 3.977676 0.785752
v 0.555605 3.977676 0.555604
v 0.785743 3.977676 0.000009
v 0.000000 4.682098 -0.976851
v 0.690744 4.682098 -0.690741
v -0.690744 4.682098 -0.690741
v -0.976857 4.682098 0.000009
v -0.690744 4.682098 0.690743
v 0.000000 4.682098 0.976853
v 0.690744 4.682098 0.690743
v 0.976857 4.682098 0.000009
v 0.000000 5.660446 -1.039199
v 0.734825 5.660446 -0.734824
v -0.734825 5.660446 -0.734824
v -1.039197 5.660446 0.000009
v -0.734825 5.660446 0.734826
v 0.000000 5.660446 1.039201
v 0.734825 5.660446 0.734826
v 1.039197 5.660446 0.000009
v 0.000000 3.930382 0.000009
v 1.066442 3.827118 0.000009
v 1.087510 3.970436 -0.047820
v 1.289835 4.014145 -0.047820
v 1.357458 3.946526 0.000009
v 0.999606 5.317932 -0.047820
v 1.260653 5.415253 -0.047820
v 1.322208 5.239235 0.000009
v 0.999606 5.113403 0.000009
v 1.260653 5.415253 0.047822
v 0.999606 5.317932 0.047822
v 1.458372 5.534630 0.000009
v 1.392071 5.718369 0.047822
v 1.392071 5.718369 -0.047820
v 1.883389 5.718369 -0.047820
v 1.699823 5.534630 0.000009
v 1.883389 5.718369 0.047822
v 1.600168 4.942032 0.000009
v 1.716165 4.891426 0.047822
v 1.716165 4.891426 -0.047820
v 0.828155 4.233086 0.000009
v 0.909115 4.123436 0.047822
v 0.909115 4.123436 -0.047820
v 0.787379 3.970932 0.000009
v 1.289835 4.014145 0.047822
v 1.087510 3.970436 0.047822
v -1.066442 3.827118 0.000009
v -1.087509 3.970436 0.047822
v -1.289834 4.014145 0.047822
v -1.357459 3.946526 0.000009
v -1.699823 5.534630 0.000009
v -1.875401 5.515717 0.047822
v -1.716166 4.891426 0.047822
v -1.600168 4.942032 0.000009
v -0.999606 5.317932 0.047822
v -1.260653 5.415253 0.047822
v -1.322208 5.239235 0.000009
v -0.999606 5.113403 0.000009
v -1.260653 5.415253 -0.047820
v -0.999606 5.317932 -0.047820
v -1.458372 5.534630 0.000009
v -1.392071 5.718369 -0.047820
v -1.392071 5.718369 0.047822
v -1.883389 5.718369 0.047822
v -1.883389 5.718369 -0.047820
v -1.716166 4.891426 -0.047820
v -1.875401 5.515717 -0.047820
v -0.828155 4.233086 0.000009
v -0.909115 4.123436 -0.047820
v -0.909115 4.123436 0.047822
v -0.787379 3.970932 0.000009
v -1.289834 4.014145 -0.047820
v -1.087509 3.970436 -0.047820
vt 0.333642 0.004385
vt 0.499537 0.004385
vt 0.499537 0.331789
vt 0.331789 0.004385
vt 0.331789 0.331789
vt 0.000000 0.331789
vt 0.500463 0.004385
vt 0.666358 0.004385
vt 0.666358 0.331789
vt 0.834105 0.004385
vt 0.996643 0.004385
vt 0.996643 0.331789
vt 0.667284 0.004385
vt 0.833179 0.004385
vt 0.833179 0.331789
vt 0.221317 0.500000
vt 0.231015 0.500000
vt 0.231015 0.526470
vt 0.187784 0.500000
vt 0.197482 0.500000
vt 0.197482 0.530737
vt 0.201197 0.500000
vt 0.210895 0.500000
vt 0.210895 0.549820
vt 0.774609 0.853335
vt 0.784308 0.853335
vt 0.784308 0.937188
vt 0.774609 0.775459
vt 0.784308 0.775459
vt 0.774609 0.759947
vt 0.019758 0.527373
vt 0.010060 0.527373
vt 0.010060 0.506857
vt 0.019758 0.506857
vt 0.014909 0.500000
vt 0.039878 0.526471
vt 0.030180 0.526471
vt 0.030180 0.500000
vt 0.211257 0.500000
vt 0.220955 0.500000
vt 0.220955 0.530737
vt 0.009698 0.549821
vt 0.000000 0.549821
vt 0.000000 0.500000
vt 0.000000 0.652007
vt 0.009698 0.652007
vt 0.009698 0.729883
vt 0.000000 0.636494
vt 0.020120 0.500000
vt 0.029818 0.500000
vt 0.029818 0.520516
vt 0.020120 0.520516
vt 0.024968 0.527373
vt 0.108333 0.116666
vt 0.213095 0.116666
vt 0.213095 0.221428
vt 0.125417 0.360544
vt 0.125418 0.465306
vt 0.082024 0.465306
vt 0.204424 0.375020
vt 0.283789 0.375020
vt 0.283789 0.454385
vt 0.264622 0.989654
vt 0.191606 0.924207
vt 0.264622 0.916638
vt 0.349919 0.986099
vt 0.276903 0.920654
vt 0.349919 0.913083
vt 0.333642 0.331789
vt 0.000000 0.004385
vt 0.500463 0.331789
vt 0.834105 0.331789
vt 0.667284 0.331789
vt 0.221317 0.526470
vt 0.187784 0.530737
vt 0.201197 0.549820
vt 0.774609 0.937188
vt 0.784308 0.759947
vt 0.039878 0.500000
vt 0.211257 0.530737
vt 0.009698 0.500000
vt 0.000000 0.729883
vt 0.009698 0.636494
vt 0.108333 0.221428
vt 0.051340 0.434622
vt 0.051340 0.391229
vt 0.082024 0.360544
vt 0.156102 0.391228
vt 0.156102 0.434622
vt 0.204424 0.454385
vt 0.508586 0.920635
vt 0.429221 0.920635
vt 0.429221 0.841269
vt 0.508586 1.000000
vt 0.429221 1.000000
vt 0.590179 0.920634
vt 0.669544 0.920634
vt 0.669544 0.999999
vt 0.590179 0.841269
vt 0.669544 0.841269
vt 0.509700 0.920635
vt 0.589064 0.920635
vt 0.589064 1.000000
vt 0.509700 0.841269
vt 0.589064 0.841269
vt 0.670657 0.920634
vt 0.750022 0.920634
vt 0.750022 0.999999
vt 0.670657 0.841269
vt 0.750022 0.841269
vt 0.191604 0.691604
vt 0.112239 0.724479
vt 0.224478 0.612239
vt 0.032874 0.691604
vt 0.000000 0.612239
vt 0.032874 0.532874
vt 0.112239 0.500000
vt 0.191604 0.532874
vt 0.942274 0.685599
vt 0.957146 0.606234
vt 0.983083 0.606234
vt 0.964422 0.500000
vt 0.949549 0.579365
vt 0.923613 0.579365
vt 0.183106 0.850366
vt 0.168234 0.929731
vt 0.142297 0.929731
vt 0.139513 0.776008
vt 0.124641 0.855373
vt 0.098704 0.855373
vt 0.959020 0.546543
vt 0.981207 0.546543
vt 0.947675 0.639056
vt 0.925488 0.639056
vt 0.166359 0.989422
vt 0.122766 0.915064
vt 0.768133 0.568582
vt 0.757039 0.500000
vt 0.813378 0.523336
vt 0.745946 0.568582
vt 0.700700 0.523336
vt 0.677364 0.579675
vt 0.745946 0.590769
vt 0.700700 0.636014
vt 0.757039 0.659351
vt 0.768133 0.590769
vt 0.813378 0.636014
vt 0.836715 0.579675
vt 0.757916 0.841269
vt 0.701577 0.841269
vt 0.701577 0.769841
vt 0.645238 0.841269
vt 0.631535 0.769841
vt 0.547992 0.500000
vt 0.604332 0.500000
vt 0.604332 0.571428
vt 0.660670 0.500000
vt 0.674373 0.571428
vt 0.497693 0.670635
vt 0.554032 0.670635
vt 0.554032 0.742062
vt 0.610371 0.670635
vt 0.624075 0.742062
vt 0.352835 0.722768
vt 0.352835 0.794196
vt 0.282793 0.794196
vt 0.409174 0.722768
vt 0.422877 0.794196
vt 0.701577 0.670635
vt 0.776089 0.670635
vt 0.627065 0.670635
vt 0.534290 0.571428
vt 0.604332 0.670635
vt 0.678844 0.670635
vt 0.554032 0.841269
vt 0.479520 0.841269
vt 0.628544 0.841269
vt 0.352835 0.893403
vt 0.427347 0.893403
vt 0.276449 0.850366
vt 0.201937 0.850366
vt 0.201937 0.674937
vt 0.127425 0.850366
vt 0.353575 0.675430
vt 0.279063 0.675430
vt 0.279063 0.500000
vt 0.204551 0.675430
vt 0.395688 0.500000
vt 0.470200 0.500000
vt 0.470200 0.675430
vt 0.544712 0.500000
vt 0.484353 0.722768
vt 0.409841 0.722768
vt 0.409841 0.547339
vt 0.335329 0.722768
vt 0.896799 0.936448
vt 0.898935 0.921915
vt 0.919451 0.917483
vt 0.890021 0.785278
vt 0.916492 0.775410
vt 0.922734 0.793259
vt 0.875788 0.643189
vt 0.869546 0.661038
vt 0.843075 0.651170
vt 0.889595 0.673144
vt 0.882872 0.691775
vt 0.929818 0.744673
vt 0.936541 0.763304
vt 0.979638 0.744673
vt 0.961024 0.763304
vt 0.914078 0.673144
vt 0.932692 0.691775
vt 0.903973 0.613053
vt 0.915735 0.607922
vt 0.962681 0.828526
vt 0.825690 0.541165
vt 0.833899 0.530046
vt 0.880845 0.906402
vt 0.872636 0.895283
vt 0.950919 0.823395
vt 0.868501 0.921865
vt 0.821555 0.514583
vt 0.872505 0.518965
vt 0.851989 0.514534
vt 0.849853 0.500000
vt 0.082839 0.713578
vt 0.080703 0.728111
vt 0.060187 0.732542
vt 0.000810 0.884802
vt 0.016957 0.821500
vt 0.028719 0.826631
vt 0.089617 0.864748
vt 0.063146 0.874616
vt 0.056904 0.856766
vt 0.831514 0.751770
vt 0.837756 0.733921
vt 0.864226 0.743789
vt 0.817707 0.721815
vt 0.824430 0.703184
vt 0.049820 0.905352
vt 0.043097 0.886722
vt 0.000000 0.905352
vt 0.018614 0.886722
vt 0.793223 0.721815
vt 0.774609 0.703184
vt 0.775419 0.723734
vt 0.803328 0.781905
vt 0.009698 0.813735
vt 0.000000 0.813735
vt 0.000000 0.793185
vt 0.009698 0.793185
vt 0.881611 0.853794
vt 0.873402 0.864913
vt 0.098792 0.743623
vt 0.107002 0.754743
vt 0.111137 0.728161
vt 0.885746 0.880376
vt 0.834797 0.875994
vt 0.855312 0.880425
vt 0.857449 0.894959
vt 0.508586 0.841269
vt 0.590179 0.999999
vt 0.509700 1.000000
vt 0.670657 0.999999
vt 0.997955 0.685599
vt 0.908741 0.500000
vt 0.083832 0.776008
vt 0.144172 0.989422
vt 0.100579 0.915064
vt 0.771619 0.769841
vt 0.483990 0.742062
vt 0.296497 0.722768
vt 0.529819 0.670635
vt 0.278323 0.893403
vt 0.926308 0.924340
vt 0.890021 0.806016
vt 0.843075 0.630432
vt 0.879362 0.512108
vt 0.053330 0.725686
vt 0.089617 0.844009
vt 0.864226 0.764527
vt 0.791566 0.787037
vt 0.827939 0.882851
vn 0.000000 -0.000000 1.000000
vn 0.000000 1.000000 0.000000
vn 0.000000 0.000000 -1.000000
vn 1.000000 0.000000 0.000000
vn -1.000000 0.000000 0.000000
vn -0.349300 0.937000 0.000000
vn -0.917500 0.397800 0.000000
vn 0.980200 -0.198200 0.000000
vn 0.689400 -0.724400 0.000000
vn 0.651000 0.759100 0.000000
vn -0.211200 0.977500 0.000000
vn 0.707100 0.707100 0.000000
vn 0.349300 0.937000 0.000000
vn 0.917500 0.397800 0.000000
vn -0.689400 -0.724400 0.000000
vn -0.651000 0.759100 0.000000
vn 0.211200 0.977500 0.000000
vn -0.707100 0.707100 0.000000
vn 0.000000 -1.000000 -0.000000
vn 0.707100 0.000000 -0.707100
vn -0.707100 0.000000 -0.707100
vn -0.707100 -0.000000 0.707100
vn 0.707100 -0.000000 0.707100
vn -0.683500 0.256200 -0.683500
vn -0.693000 0.198500 -0.693000
vn 0.706800 0.194600 -0.680100
vn -0.683500 0.256200 0.683500
vn -0.693100 0.198000 0.693100
vn 0.683500 0.256200 0.683500
vn 0.693000 0.198500 0.693000
vn 0.683500 0.256200 -0.683500
vn -0.706400 0.044400 -0.706400
vn 0.706400 0.044400 -0.706400
vn -0.706400 0.044400 0.706400
vn 0.706400 0.044400 0.706400
vn 0.218800 -0.953100 -0.209200
vn -0.007700 -0.478300 -0.878200
vn 0.628600 -0.470300 -0.619400
vn -0.209100 -0.953100 -0.218800
vn -0.620100 -0.470300 -0.628000
vn -0.878900 -0.476900 0.007800
vn -0.218800 -0.953100 0.209100
vn -0.627400 -0.471800 0.619500
vn 0.007700 -0.478300 0.878200
vn 0.209100 -0.953100 0.218800
vn 0.619500 -0.471800 0.627400
vn 0.878900 -0.476900 -0.007800
vn 0.016700 -0.145900 -0.989200
vn -0.700300 -0.138400 -0.700300
vn -0.989100 -0.146100 -0.016500
vn -0.711200 -0.146000 0.687700
vn -0.016700 -0.145900 0.989200
vn 0.700300 -0.138300 0.700300
vn 0.990400 -0.138400 0.000000
vn 0.682800 -0.158300 -0.713200
vn 0.000000 -0.063600 -0.998000
vn 0.705700 -0.063600 -0.705700
vn -0.705700 -0.063600 -0.705700
vn -0.998000 -0.063600 0.000000
vn -0.705700 -0.063600 0.705700
vn 0.000000 -0.063600 0.998000
vn 0.705700 -0.063600 0.705700
vn 0.998000 -0.063600 0.000000
vn -0.606200 0.514900 0.606200
vn 0.000000 0.514900 0.857200
vn 0.606200 0.514900 0.606200
vn 0.857200 0.514900 -0.000000
vn 0.606200 0.514900 -0.606200
vn 0.000000 0.514900 -0.857200
vn -0.606200 0.514900 -0.606200
vn -0.857200 0.514900 -0.000000
vn -0.061800 -0.312900 -0.947800
vn -0.075700 -0.274300 -0.958700
vn 0.154300 -0.413800 -0.897200
vn 0.087900 -0.228700 -0.969500
vn 0.209500 -0.185500 -0.960100
vn 0.150700 -0.208600 -0.966300
vn 0.150600 -0.208600 0.966300
vn 0.209400 -0.185500 0.960100
vn 0.087900 -0.228700 0.969500
vn 0.140700 -0.202800 0.969100
vn 0.092000 -0.218900 0.971400
vn 0.092000 -0.219000 -0.971400
vn 0.140800 -0.202900 -0.969000
vn -0.170600 -0.087100 -0.981500
vn -0.198000 -0.061300 -0.978300
vn -0.197900 -0.061300 0.978300
vn -0.170600 -0.087100 0.981500
vn -0.301200 0.188800 0.934700
vn -0.303400 0.178300 0.936100
vn -0.303400 0.178300 -0.936000
vn -0.240800 0.240800 0.940200
vn -0.237500 0.147400 0.960100
vn -0.237600 0.147400 -0.960100
vn -0.240900 0.240900 -0.940200
vn -0.301200 0.188800 -0.934700
vn -0.187700 -0.192600 -0.963200
vn -0.187600 -0.192600 0.963200
vn 0.154300 -0.413700 0.897300
vn -0.075700 -0.274200 0.958700
vn -0.061800 -0.312800 0.947800
vn 0.061800 -0.312800 0.947800
vn 0.075700 -0.274200 0.958700
vn -0.154300 -0.413700 0.897300
vn 0.278900 0.048100 0.959100
vn 0.303600 0.193800 0.932900
vn 0.290200 0.201000 0.935600
vn -0.087900 -0.228700 0.969500
vn -0.209400 -0.185500 0.960100
vn -0.150600 -0.208600 0.966300
vn -0.150700 -0.208600 -0.966300
vn -0.209500 -0.185500 -0.960100
vn -0.087900 -0.228700 -0.969500
vn -0.140800 -0.202800 -0.969000
vn -0.092000 -0.219000 -0.971400
vn -0.092000 -0.218900 0.971400
vn -0.140700 -0.202800 0.969100
vn 0.053500 -0.201100 0.978100
vn 0.142200 -0.099700 0.984800
vn 0.142300 -0.099700 -0.984800
vn 0.053500 -0.201200 -0.978100
vn 0.279000 0.048100 -0.959100
vn 0.290300 0.201000 -0.935600
vn -0.999200 -0.039400 0.000000
vn -0.980100 -0.198400 -0.000000
vn -0.980100 -0.198500 -0.000000
vn -0.969000 -0.247200 0.000000
vn 0.240900 0.240900 -0.940200
vn 0.237600 0.147400 -0.960100
vn 0.237500 0.147400 0.960100
vn 0.240800 0.240800 0.940200
vn 0.187600 -0.192600 0.963200
vn 0.187700 -0.192600 -0.963200
vn -0.154300 -0.413800 -0.897200
vn 0.075700 -0.274300 -0.958700
vn 0.061800 -0.312900 -0.947800
vn 0.180900 -0.440900 -0.879100
vn 0.088500 -0.226800 -0.969900
vn 0.088400 -0.226700 0.969900
vn 0.180900 -0.440800 0.879200
vn -0.180900 -0.440800 0.879200
vn -0.088400 -0.226700 0.969900
vn -0.088500 -0.226800 -0.969900
vn 0.303700 0.193800 -0.932800
vn -0.180900 -0.440900 -0.879100
usemtl lambert7SG
s off
f 2/1/1 3/2/1 4/3/1
f 3/4/2 5/5/2 6/6/2
f 5/7/3 7/8/3 8/9/3
f 7/10/4 5/11/4 3/12/4
f 1/13/5 4/14/5 6/15/5
f 70/16/6 67/17/6 66/18/6
f 67/19/7 70/20/7 73/21/7
f 77/22/2 75/23/2 74/24/2
f 79/25/8 80/26/8 75/27/8
f 82/28/9 83/29/9 80/26/9
f 83/29/10 82/28/10 86/30/10
f 63/31/11 86/32/11 85/33/11
f 64/34/12 85/33/12 65/35/12
f 99/36/13 96/37/13 95/38/13
f 96/39/14 99/40/14 102/41/14
f 105/42/2 104/43/2 103/44/2
f 109/45/15 110/46/15 93/47/15
f 110/46/16 109/45/16 113/48/16
f 88/49/17 113/50/17 112/51/17
f 89/52/18 112/51/18 90/53/18
f 1/54/19 8/55/19 7/56/19
f 21/57/19 15/58/19 13/59/19
f 25/60/19 31/61/19 29/62/19
f 98/63/4 100/64/4 95/65/4
f 69/66/5 71/67/5 66/68/5
f 1/69/1 2/1/1 4/3/1
f 4/70/2 3/4/2 6/6/2
f 6/71/3 5/7/3 8/9/3
f 2/72/4 7/10/4 3/12/4
f 8/73/5 1/13/5 6/15/5
f 71/74/6 70/16/6 66/18/6
f 74/75/7 67/19/7 73/21/7
f 73/76/2 77/22/2 74/24/2
f 77/77/8 79/25/8 75/27/8
f 79/25/9 82/28/9 80/26/9
f 63/78/10 83/29/10 86/30/10
f 64/34/11 63/31/11 85/33/11
f 100/79/13 99/36/13 95/38/13
f 103/80/14 96/39/14 102/41/14
f 102/81/2 105/42/2 103/44/2
f 106/82/15 109/45/15 93/47/15
f 88/83/16 110/46/16 113/48/16
f 89/52/17 88/49/17 112/51/17
f 2/84/19 1/54/19 7/56/19
f 13/59/19 10/85/19 9/86/19
f 9/86/19 23/87/19 13/59/19
f 21/57/19 19/88/19 17/89/19
f 17/89/19 15/58/19 21/57/19
f 13/59/19 23/87/19 21/57/19
f 26/90/19 25/60/19 29/62/19
s 1
f 10/91/3 11/92/3 12/93/20
f 13/94/21 14/95/21 11/92/3
f 15/96/5 16/97/5 14/98/21
f 17/99/22 18/100/22 16/97/5
f 19/101/1 20/102/1 18/103/22
f 21/104/23 22/105/23 20/102/1
f 23/106/4 24/107/4 22/108/23
f 9/109/20 12/110/20 24/107/4
f 12/111/2 11/112/2 24/113/2
f 11/112/2 14/114/2 24/113/2
f 14/114/2 16/115/2 24/113/2
f 16/115/2 18/116/2 24/113/2
f 18/116/2 20/117/2 24/113/2
f 20/117/2 22/118/2 24/113/2
f 26/119/24 27/120/25 28/121/26
f 29/122/27 30/123/28 27/124/25
f 31/125/29 32/126/30 30/127/28
f 25/128/31 28/129/26 32/130/30
f 27/120/25 33/131/32 34/132/33
f 30/123/28 35/133/34 33/134/32
f 30/127/28 32/126/30 36/135/35
f 32/130/30 28/129/26 34/136/33
f 34/137/36 37/138/37 38/139/38
f 33/140/39 39/141/40 37/138/37
f 33/140/39 40/142/41 39/141/40
f 35/143/42 41/144/43 40/142/41
f 35/143/42 42/145/44 41/144/43
f 36/146/45 43/147/46 42/145/44
f 36/146/45 44/148/47 43/147/46
f 34/137/36 38/139/38 44/148/47
f 38/149/38 37/150/37 45/151/48
f 39/152/40 47/153/49 45/151/48
f 39/154/40 40/155/41 48/156/50
f 40/155/41 41/157/43 49/158/51
f 41/159/43 42/160/44 50/161/52
f 43/162/46 51/163/53 50/161/52
f 44/164/47 52/165/54 51/166/53
f 38/167/38 46/168/55 52/165/54
f 45/151/48 53/169/56 54/170/57
f 45/151/48 47/153/49 55/171/58
f 47/172/49 48/156/50 56/173/59
f 49/158/51 57/174/60 56/173/59
f 50/161/52 58/175/61 57/176/60
f 50/161/52 51/163/53 59/177/62
f 51/166/53 52/165/54 60/178/63
f 46/168/55 54/179/57 60/178/63
f 54/180/64 53/181/65 61/182/2
f 53/181/65 55/183/66 61/182/2
f 55/184/66 56/185/67 61/186/2
f 56/185/67 57/187/68 61/186/2
f 57/188/68 58/189/69 61/190/2
f 58/189/69 59/191/70 61/190/2
f 59/192/70 60/193/71 61/194/2
f 60/193/71 54/195/64 61/194/2
f 62/196/72 63/197/73 64/198/74
f 66/199/75 67/200/76 68/201/77
f 68/202/78 70/203/79 71/204/80
f 72/205/81 73/206/82 70/203/79
f 67/200/76 74/207/83 72/208/84
f 74/207/83 75/209/85 76/210/86
f 76/211/87 77/212/88 73/206/82
f 76/211/87 78/213/89 79/214/90
f 76/210/86 75/209/85 80/215/91
f 78/213/89 81/216/92 82/217/93
f 83/218/94 81/219/95 78/220/96
f 81/219/95 83/218/94 84/221/97
f 82/217/93 81/216/92 84/222/98
f 85/223/99 86/224/100 62/225/101
f 86/224/100 82/217/93 84/222/98
f 84/221/97 83/218/94 63/197/73
f 87/226/102 88/227/103 89/228/104
f 92/229/105 93/230/106 94/231/107
f 95/232/108 96/233/109 97/234/110
f 97/235/111 99/236/112 100/237/113
f 101/238/114 102/239/115 99/236/112
f 96/233/109 103/240/116 101/241/117
f 103/240/116 104/242/118 91/243/119
f 91/244/120 105/245/121 102/239/115
f 107/246/122 91/244/120 94/247/123
f 91/244/120 107/246/122 105/245/121
f 91/243/119 104/242/118 92/229/105
f 104/248/124 105/249/124 107/250/125
f 92/251/126 107/250/125 106/82/127
f 94/247/123 108/252/128 109/253/129
f 110/254/130 108/255/131 94/231/107
f 108/255/131 110/254/130 111/256/132
f 109/253/129 108/252/128 111/257/133
f 112/258/134 113/259/135 87/260/136
f 113/259/135 109/253/129 111/257/133
f 111/256/132 110/254/130 88/227/103
f 9/261/20 10/91/3 12/93/20
f 10/91/3 13/94/21 11/92/3
f 13/262/21 15/96/5 14/98/21
f 15/96/5 17/99/22 16/97/5
f 17/263/22 19/101/1 18/103/22
f 19/101/1 21/104/23 20/102/1
f 21/264/23 23/106/4 22/108/23
f 23/106/4 9/109/20 24/107/4
f 25/265/31 26/119/24 28/121/26
f 26/266/24 29/122/27 27/124/25
f 29/183/27 31/125/29 30/127/28
f 31/267/29 25/128/31 32/130/30
f 28/121/26 27/120/25 34/132/33
f 27/124/25 30/123/28 33/134/32
f 35/268/34 30/127/28 36/135/35
f 36/269/35 32/130/30 34/136/33
f 34/137/36 33/140/39 37/138/37
f 33/140/39 35/143/42 40/142/41
f 35/143/42 36/146/45 42/145/44
f 36/146/45 34/137/36 44/148/47
f 46/270/55 38/149/38 45/151/48
f 37/150/37 39/152/40 45/151/48
f 47/172/49 39/154/40 48/156/50
f 48/156/50 40/155/41 49/158/51
f 49/271/51 41/159/43 50/161/52
f 42/160/44 43/162/46 50/161/52
f 43/272/46 44/164/47 51/166/53
f 44/164/47 38/167/38 52/165/54
f 46/270/55 45/151/48 54/170/57
f 53/169/56 45/151/48 55/171/58
f 55/273/58 47/172/49 56/173/59
f 48/156/50 49/158/51 56/173/59
f 49/271/51 50/161/52 57/176/60
f 58/175/61 50/161/52 59/177/62
f 59/274/62 51/166/53 60/178/63
f 52/165/54 46/168/55 60/178/63
f 65/275/137 62/196/72 64/198/74
f 69/276/138 66/199/75 68/201/77
f 69/277/139 68/202/78 71/204/80
f 68/202/78 72/205/81 70/203/79
f 68/201/77 67/200/76 72/208/84
f 72/208/84 74/207/83 76/210/86
f 72/205/81 76/211/87 73/206/82
f 77/212/88 76/211/87 79/214/90
f 78/220/96 76/210/86 80/215/91
f 79/214/90 78/213/89 82/217/93
f 80/215/91 83/218/94 78/220/96
f 65/278/140 85/223/99 62/225/101
f 62/225/101 86/224/100 84/222/98
f 62/196/72 84/221/97 63/197/73
f 90/279/141 87/226/102 89/228/104
f 91/243/119 92/229/105 94/231/107
f 98/280/142 95/232/108 97/234/110
f 98/281/143 97/235/111 100/237/113
f 97/235/111 101/238/114 99/236/112
f 97/234/110 96/233/109 101/241/117
f 101/241/117 103/240/116 91/243/119
f 101/238/114 91/244/120 102/239/115
f 106/282/144 107/246/122 94/247/123
f 92/251/126 104/248/124 107/250/125
f 93/47/127 92/251/126 106/82/127
f 106/282/144 94/247/123 109/253/129
f 93/230/106 110/254/130 94/231/107
f 90/283/145 112/258/134 87/260/136
f 87/260/136 113/259/135 111/257/133
f 87/226/102 111/256/132 88/227/103
